<svg version="1.1" id="Layer_1" xmlns="http://www.w3.org/2000/svg" xmlns:xlink="http://www.w3.org/1999/xlink" x="0px" y="0px"
	 width="100%" viewBox="0 0 1024 608" enable-background="new 0 0 1024 608" xml:space="preserve">
<path fill="#000000" opacity="1.000000" stroke="none" 
	d="
M401.183746,391.926514 
	C377.137024,381.114227 355.771454,367.285400 339.606781,346.466583 
	C328.999634,332.805450 322.709503,317.281677 321.941620,300.040314 
	C321.154449,282.366882 326.538330,266.163818 336.804535,251.762177 
	C352.544983,229.681259 374.239899,215.124191 398.375122,203.756897 
	C398.774628,203.568710 399.315521,203.680679 400.127594,203.632629 
	C399.979034,205.870071 398.091492,206.137787 396.857300,206.888458 
	C385.252777,213.946228 374.792236,222.292358 365.964050,232.732635 
	C338.883759,264.758087 342.642303,302.455475 369.180847,331.253998 
	C387.014435,350.606232 409.639069,362.560425 434.322998,370.695129 
	C466.672272,381.355957 499.906647,384.553253 533.837341,381.946991 
	C560.113953,379.928680 585.543457,374.616608 609.648376,363.817322 
	C628.681946,355.290100 646.199646,344.382629 659.678589,328.138824 
	C686.550537,295.754730 684.995544,258.167969 655.864502,227.759308 
	C648.206238,219.765152 639.539429,213.062668 630.080139,207.343201 
	C628.579285,206.435745 626.635071,206.009888 625.899048,204.083008 
	C626.815002,202.898514 627.798950,203.623474 628.576172,204.003067 
	C650.330750,214.628036 670.271484,227.642212 685.702087,246.767227 
	C710.873962,277.965759 710.355835,318.872864 684.410950,349.459808 
	C663.567261,374.032745 636.427124,388.742920 606.619568,399.127838 
	C581.314026,407.944214 555.146484,412.197845 528.363586,413.523895 
	C489.133148,415.466187 451.012756,410.453094 414.029846,397.151825 
	C409.802673,395.631439 405.693970,393.781586 401.183746,391.926514 
z"/>
<path fill="#000000" opacity="1.000000" stroke="none" 
	d="
M588.628601,230.427673 
	C571.814636,223.087997 554.561523,218.981155 536.727539,217.255402 
	C531.835205,216.781998 528.181763,215.346130 525.653564,210.469177 
	C522.307434,204.014420 517.896179,198.111832 513.204651,190.825729 
	C509.155945,196.960449 505.054382,201.986603 502.291260,207.664169 
	C498.871094,214.691879 493.819885,216.740112 486.276611,217.595917 
	C459.792908,220.600555 434.877838,228.555328 413.068542,244.524323 
	C398.706116,255.040649 388.459534,268.317810 385.896240,286.491394 
	C384.126404,299.039673 388.182526,310.145721 394.870270,320.428833 
	C401.159943,330.099823 409.775848,337.393951 419.528687,343.412323 
	C420.944305,344.285828 422.347382,345.181824 423.720825,346.119324 
	C423.944611,346.272095 423.983276,346.696075 424.102478,346.999268 
	C423.751801,347.867401 423.076935,347.663452 422.500122,347.403900 
	C404.534393,339.318726 387.954590,329.223541 375.667206,313.414093 
	C356.060638,288.187469 357.615723,258.297729 379.469879,234.821594 
	C395.466217,217.637970 415.582886,207.191605 437.438263,199.786331 
	C462.410431,191.325043 488.300568,187.562851 514.526672,187.984879 
	C551.684082,188.582840 587.713379,194.919266 620.427124,214.054184 
	C634.398315,222.226135 646.821716,232.186371 655.279785,246.281937 
	C669.354126,269.737213 666.917786,294.794830 648.581360,316.028259 
	C636.464539,330.059479 621.013367,339.459747 604.468079,347.271393 
	C603.776978,347.597687 602.972107,348.102112 601.945801,347.298340 
	C602.339844,345.239532 604.349792,344.892609 605.764404,344.013885 
	C623.103271,333.243713 636.442932,319.429199 640.026978,298.398041 
	C642.514526,283.801117 637.597900,271.120789 628.902832,259.750580 
	C618.495056,246.140839 604.318176,237.522720 588.628601,230.427673 
z"/>
<path fill="#000000" opacity="1.000000" stroke="none" 
	d="
M442.574951,244.458633 
	C449.512756,240.873077 456.295715,237.907181 464.058350,235.594482 
	C463.423737,238.465683 461.433990,238.703461 460.000732,239.511383 
	C446.318390,247.224045 436.101837,257.605621 433.865967,273.949707 
	C432.520813,283.782745 435.978088,292.324615 441.876099,299.905670 
	C449.781219,310.066498 460.261414,316.951721 472.282532,320.982330 
	C506.282532,332.382355 539.383728,331.393707 570.743713,312.261597 
	C575.449524,309.390625 579.567505,305.719025 583.110840,301.449524 
	C596.152039,285.735870 595.679443,266.798126 581.869629,251.635101 
	C577.563049,246.906479 572.525330,243.136475 566.982544,239.973358 
	C565.479797,239.115738 563.471252,238.752441 562.834290,236.743668 
	C563.783752,235.642456 564.779663,236.368576 565.601929,236.666626 
	C579.651428,241.759003 592.891602,248.282135 603.751160,258.846405 
	C625.144470,279.658173 624.002808,308.045044 601.098755,327.286041 
	C585.231812,340.615356 566.691040,347.934082 546.575989,351.740234 
	C515.146362,357.687256 484.264374,355.943085 454.272156,344.407928 
	C440.300476,339.034332 427.530060,331.556366 417.900574,319.677490 
	C402.642303,300.855042 403.697144,277.930847 420.579010,260.524933 
	C426.899109,254.008682 434.180725,248.780563 442.574951,244.458633 
z"/>
<path fill="#000000" opacity="1.000000" stroke="none" 
	d="
M431.072510,519.461304 
	C418.686371,520.524841 406.704865,519.760437 394.734955,519.946960 
	C387.415649,520.061096 380.087860,520.098145 372.772736,519.877319 
	C366.170837,519.678040 363.078033,516.879089 363.024139,510.393066 
	C362.844482,488.763611 362.852356,467.130524 363.058105,445.501373 
	C363.115143,439.506073 366.290558,436.756500 372.286011,436.725342 
	C388.758942,436.639740 405.234558,436.543060 421.705292,436.751709 
	C432.316772,436.886108 439.173340,444.266205 439.420074,454.948395 
	C439.556213,460.841980 439.253021,466.645264 436.261261,471.884003 
	C434.694305,474.627838 436.123352,475.985962 437.912048,477.765930 
	C446.103516,485.917694 447.967926,495.915497 445.332550,506.756531 
	C443.618347,513.808044 438.888367,518.227051 431.072510,519.461304 
M392.563080,486.309631 
	C383.793579,486.292755 383.793610,486.292755 383.834198,477.656555 
	C383.836548,477.157104 383.893768,476.650391 383.830566,476.159302 
	C383.245850,471.617828 385.264496,469.857178 389.778412,469.948120 
	C397.431976,470.102295 405.102936,470.150665 412.746887,469.806396 
	C419.970184,469.481110 424.434784,463.617706 423.653320,456.425110 
	C423.357910,453.706146 421.818573,452.529205 419.392120,452.514801 
	C407.406189,452.443665 395.419556,452.447083 383.433441,452.494293 
	C380.685547,452.505127 379.232483,453.823975 379.249207,456.840424 
	C379.328644,471.158112 379.316864,485.476562 379.259064,499.794434 
	C379.248199,502.488892 380.200623,503.745911 383.031769,503.733582 
	C397.349579,503.671173 411.667877,503.690796 425.985901,503.714935 
	C429.551605,503.720947 430.556824,501.798859 430.320099,498.564087 
	C429.733856,490.552582 425.600769,486.461945 417.523102,486.347046 
	C409.533112,486.233368 401.540375,486.314636 392.563080,486.309631 
z"/>
<path fill="#000000" opacity="1.000000" stroke="none" 
	d="
M494.042969,282.008179 
	C505.519226,289.448944 517.092834,289.976074 528.892273,283.951416 
	C536.028809,280.307556 540.669495,274.337128 543.662598,266.997253 
	C546.667480,259.628357 546.120117,252.140228 544.283569,244.308990 
	C556.481384,249.067261 567.030151,255.339706 570.540161,268.723755 
	C573.631165,280.510132 569.098633,290.055481 559.901123,297.341919 
	C544.302734,309.699188 526.036560,312.977722 506.736786,311.817535 
	C497.066223,311.236237 487.616547,309.284821 478.751953,305.109467 
	C473.754486,302.755554 469.054840,299.934753 464.923431,296.243042 
	C452.106262,284.789978 451.284088,267.913422 463.077423,255.594925 
	C468.199249,250.244995 474.454559,246.549103 482.782837,243.465286 
	C478.102264,259.195435 481.280670,272.009491 494.042969,282.008179 
z"/>
<path fill="#000000" opacity="1.000000" stroke="none" 
	d="
M570.179565,519.196289 
	C555.634338,513.794373 548.203125,503.247925 547.049316,488.521698 
	C546.402222,480.262604 546.264709,471.901672 547.590332,463.599182 
	C550.127380,447.709442 563.767090,435.812103 579.918213,435.678467 
	C586.583679,435.623322 593.250000,435.662750 599.915894,435.666870 
	C621.696716,435.680328 634.120667,446.358856 636.743591,468.045441 
	C637.781128,476.623718 637.798645,485.390533 636.068359,493.934113 
	C633.851379,504.881042 627.632568,512.964417 617.041016,517.982910 
	C621.050598,523.475647 627.636230,525.944702 632.591309,532.436890 
	C621.874146,531.309998 611.647461,535.770569 603.565735,526.809448 
	C599.224426,521.995728 593.765747,520.477539 587.368958,521.055908 
	C581.710449,521.567627 576.059143,520.938354 570.179565,519.196289 
M571.157959,454.537537 
	C566.048340,457.665680 563.527161,462.407013 563.322266,468.215485 
	C563.082031,475.024719 563.069275,481.857117 563.331543,488.665070 
	C563.664062,497.295654 570.769714,504.386841 579.452209,504.673584 
	C587.592163,504.942413 595.754944,504.960419 603.894409,504.690033 
	C613.385010,504.374756 620.389709,497.136322 620.671814,487.650543 
	C620.839783,482.000824 620.761292,476.342041 620.714233,470.687988 
	C620.617004,459.001343 613.528442,451.732452 601.764954,451.404388 
	C595.782288,451.237518 589.790588,451.424561 583.804382,451.345062 
	C579.550659,451.288635 575.558594,452.152679 571.157959,454.537537 
z"/>
<path fill="#000000" opacity="1.000000" stroke="none" 
	d="
M455.028961,458.441681 
	C457.877075,443.818604 466.384430,436.732697 480.812408,436.692078 
	C495.467773,436.650787 510.126526,436.846313 524.777100,436.575653 
	C529.609558,436.486328 531.423767,438.022675 530.934875,442.845428 
	C529.818848,453.851807 531.999390,452.624054 520.897949,452.718140 
	C507.741180,452.829651 494.604767,451.924194 481.455902,452.398529 
	C475.559784,452.611267 472.032898,455.001343 471.325165,459.334198 
	C470.217285,466.116730 473.243805,469.867310 480.246185,469.949707 
	C490.736694,470.073151 501.235382,469.762726 511.720459,470.031250 
	C530.661072,470.516296 541.638916,484.416016 537.279785,502.051514 
	C534.690796,512.525574 526.116638,519.500000 513.561768,519.826721 
	C495.754761,520.290100 477.926422,519.916016 460.107269,519.951599 
	C457.014679,519.957764 455.608673,518.786255 455.644348,515.508972 
	C455.796173,501.580414 454.389496,503.847290 466.703308,503.745483 
	C481.857391,503.620178 497.013397,503.742950 512.168396,503.704956 
	C518.884888,503.688141 521.879272,500.980103 521.881897,495.126495 
	C521.884399,489.380585 518.690491,486.388245 512.206970,486.339996 
	C501.882019,486.263153 491.556061,486.340240 481.230713,486.301575 
	C464.211243,486.237885 454.306824,475.876831 455.028961,458.441681 
z"/>
<path fill="#000000" opacity="1.000000" stroke="none" 
	d="
M525.886841,161.618668 
	C520.460144,168.863419 513.173401,170.678757 506.053650,166.849579 
	C499.928467,163.555313 497.213196,156.111176 499.641266,149.269318 
	C502.281525,141.829483 510.154907,137.963318 517.721924,140.390976 
	C525.431152,142.864258 529.476685,150.286057 527.302002,158.035583 
	C526.990540,159.145615 526.486633,160.201645 525.886841,161.618668 
z"/>
<path fill="#000000" opacity="1.000000" stroke="none" 
	d="
M505.028992,121.644775 
	C503.142120,117.125351 503.856201,113.363708 507.291107,110.515396 
	C510.503845,107.851334 514.289795,107.484978 517.978882,109.585960 
	C521.554749,111.622437 522.692444,115.022408 522.271240,118.941536 
	C521.852356,122.839668 519.494202,125.291504 515.827820,126.305687 
	C511.276825,127.564583 507.718811,125.962219 505.028992,121.644775 
z"/>
<path fill="#000000" opacity="1.000000" stroke="none" 
	d="
M657.979858,443.008789 
	C660.792114,443.311554 660.254395,440.921722 660.959167,439.538757 
	C661.666138,438.151550 662.320923,436.818726 664.185242,436.985382 
	C666.285400,437.173096 666.386292,438.816742 666.291687,440.296356 
	C666.069275,443.775177 667.264160,447.453796 665.257812,450.758026 
	C662.116455,450.173584 663.510376,447.438965 662.478455,445.910889 
	C660.796021,447.261383 661.469238,450.312134 658.728760,450.885559 
	C655.793945,450.112640 656.371582,446.849548 654.730652,444.991547 
	C653.558044,446.814545 655.575989,449.825775 651.841370,451.042084 
	C649.934387,446.810120 650.322815,442.395782 651.389526,438.275208 
	C651.955383,436.089325 654.394714,436.487549 655.688965,438.308075 
	C656.630798,439.632843 657.118652,441.280396 657.979858,443.008789 
z"/>
<path fill="#000000" opacity="1.000000" stroke="none" 
	d="
M508.082153,88.543114 
	C509.726501,85.573753 511.879425,84.291275 514.872864,85.150879 
	C517.166382,85.809479 518.471802,87.573700 518.818604,89.847786 
	C519.177551,92.202171 518.046204,94.030670 516.093933,95.307167 
	C514.248535,96.513756 512.324585,96.465088 510.448059,95.366341 
	C507.930206,93.892136 507.390686,91.612770 508.082153,88.543114 
z"/>
<path fill="#000000" opacity="1.000000" stroke="none" 
	d="
M641.722656,442.660706 
	C641.621765,440.098999 638.529480,440.388275 638.377686,437.737335 
	C641.848450,436.170410 645.301025,436.250000 650.428162,438.271973 
	C642.667236,440.529907 647.064209,447.031067 644.115723,451.148407 
	C640.409607,448.989014 642.435242,445.633606 641.722656,442.660706 
z"/>
</svg>