<svg xmlns="http://www.w3.org/2000/svg" xmlns:xlink="http://www.w3.org/1999/xlink" width="500" zoomAndPan="magnify" viewBox="0 0 375 374.999991" height="500" preserveAspectRatio="xMidYMid meet" version="1.0"><rect x="-37.5" width="450" fill="#ffffff" y="-37.499999" height="449.999989" fill-opacity="1"/><rect x="-37.5" width="450" fill="#ffffff" y="-37.499999" height="449.999989" fill-opacity="1"/><path fill="#000000" d="M 119.992188 239.3125 C 105.304688 232.710938 92.253906 224.269531 82.378906 211.554688 C 75.898438 203.214844 72.058594 193.734375 71.589844 183.207031 C 71.109375 172.414062 74.394531 162.523438 80.667969 153.726562 C 90.28125 140.246094 103.535156 131.355469 118.277344 124.414062 C 118.519531 124.300781 118.851562 124.371094 119.347656 124.339844 C 119.253906 125.707031 118.101562 125.871094 117.347656 126.328125 C 110.261719 130.636719 103.871094 135.734375 98.476562 142.109375 C 81.9375 161.664062 84.234375 184.683594 100.441406 202.265625 C 111.335938 214.082031 125.15625 221.382812 140.234375 226.347656 C 159.992188 232.859375 180.292969 234.8125 201.019531 233.21875 C 217.070312 231.988281 232.601562 228.742188 247.324219 222.148438 C 258.953125 216.941406 269.652344 210.28125 277.886719 200.363281 C 294.300781 180.589844 293.347656 157.640625 275.554688 139.070312 C 270.878906 134.191406 265.582031 130.097656 259.804688 126.605469 C 258.890625 126.050781 257.703125 125.792969 257.253906 124.613281 C 257.8125 123.890625 258.414062 124.335938 258.886719 124.566406 C 272.175781 131.054688 284.355469 139 293.78125 150.679688 C 309.15625 169.726562 308.839844 194.707031 292.992188 213.382812 C 280.261719 228.386719 263.683594 237.371094 245.476562 243.710938 C 230.019531 249.09375 214.035156 251.691406 197.675781 252.5 C 173.710938 253.6875 150.429688 250.625 127.835938 242.503906 C 125.253906 241.574219 122.746094 240.445312 119.992188 239.3125 Z M 119.992188 239.3125 " fill-opacity="1" fill-rule="nonzero"/><path fill="#000000" d="M 234.488281 140.699219 C 224.214844 136.21875 213.675781 133.710938 202.785156 132.65625 C 199.796875 132.367188 197.5625 131.492188 196.019531 128.515625 C 193.976562 124.574219 191.28125 120.96875 188.414062 116.519531 C 185.941406 120.265625 183.4375 123.335938 181.75 126.800781 C 179.660156 131.09375 176.574219 132.34375 171.96875 132.867188 C 155.789062 134.699219 140.570312 139.558594 127.25 149.308594 C 118.476562 155.730469 112.21875 163.835938 110.652344 174.933594 C 109.570312 182.597656 112.050781 189.378906 116.132812 195.65625 C 119.976562 201.5625 125.238281 206.015625 131.195312 209.691406 C 132.0625 210.222656 132.917969 210.769531 133.757812 211.34375 C 133.894531 211.4375 133.917969 211.695312 133.992188 211.878906 C 133.777344 212.410156 133.363281 212.285156 133.011719 212.128906 C 122.039062 207.191406 111.910156 201.027344 104.40625 191.375 C 92.429688 175.96875 93.378906 157.71875 106.726562 143.382812 C 116.5 132.890625 128.785156 126.511719 142.136719 121.992188 C 157.390625 116.824219 173.203125 114.527344 189.222656 114.785156 C 211.921875 115.148438 233.925781 119.019531 253.910156 130.703125 C 262.445312 135.691406 270.03125 141.773438 275.199219 150.382812 C 283.796875 164.703125 282.308594 180.003906 271.105469 192.96875 C 263.707031 201.539062 254.269531 207.277344 244.160156 212.046875 C 243.738281 212.246094 243.246094 212.554688 242.621094 212.0625 C 242.863281 210.804688 244.089844 210.59375 244.953125 210.058594 C 255.542969 203.480469 263.691406 195.046875 265.882812 182.203125 C 267.402344 173.292969 264.398438 165.546875 259.085938 158.605469 C 252.730469 150.296875 244.070312 145.035156 234.488281 140.699219 Z M 234.488281 140.699219 " fill-opacity="1" fill-rule="nonzero"/><path fill="#000000" d="M 145.273438 149.269531 C 149.511719 147.078125 153.65625 145.269531 158.394531 143.855469 C 158.007812 145.609375 156.792969 145.753906 155.917969 146.246094 C 147.558594 150.957031 141.320312 157.296875 139.953125 167.277344 C 139.132812 173.28125 141.246094 178.496094 144.847656 183.125 C 149.675781 189.328125 156.078125 193.535156 163.417969 195.996094 C 184.1875 202.957031 204.40625 202.351562 223.5625 190.667969 C 226.4375 188.917969 228.953125 186.675781 231.117188 184.066406 C 239.082031 174.472656 238.792969 162.910156 230.359375 153.652344 C 227.726562 150.761719 224.648438 148.460938 221.265625 146.53125 C 220.347656 146.007812 219.121094 145.785156 218.730469 144.558594 C 219.3125 143.886719 219.917969 144.328125 220.421875 144.511719 C 229.003906 147.621094 237.089844 151.601562 243.722656 158.054688 C 256.792969 170.761719 256.09375 188.09375 242.105469 199.84375 C 232.410156 207.984375 221.085938 212.453125 208.800781 214.777344 C 189.601562 218.40625 170.738281 217.34375 152.417969 210.296875 C 143.882812 207.015625 136.085938 202.449219 130.203125 195.199219 C 120.882812 183.703125 121.527344 169.707031 131.839844 159.078125 C 135.699219 155.101562 140.144531 151.90625 145.273438 149.269531 Z M 145.273438 149.269531 " fill-opacity="1" fill-rule="nonzero"/><path fill="#000000" d="M 138.246094 317.1875 C 130.683594 317.835938 123.363281 317.371094 116.050781 317.484375 C 111.582031 317.554688 107.105469 317.578125 102.636719 317.441406 C 98.605469 317.320312 96.714844 315.609375 96.683594 311.648438 C 96.574219 298.441406 96.578125 285.234375 96.703125 272.027344 C 96.738281 268.367188 98.675781 266.6875 102.339844 266.667969 C 112.402344 266.617188 122.464844 266.558594 132.527344 266.683594 C 139.007812 266.765625 143.195312 271.273438 143.347656 277.796875 C 143.429688 281.394531 143.246094 284.9375 141.417969 288.136719 C 140.460938 289.8125 141.332031 290.640625 142.425781 291.726562 C 147.429688 296.707031 148.566406 302.808594 146.957031 309.429688 C 145.910156 313.734375 143.023438 316.433594 138.246094 317.1875 M 114.726562 296.945312 C 109.367188 296.933594 109.367188 296.933594 109.394531 291.660156 C 109.394531 291.355469 109.429688 291.046875 109.390625 290.746094 C 109.035156 287.972656 110.265625 286.898438 113.023438 286.953125 C 117.699219 287.046875 122.386719 287.078125 127.054688 286.867188 C 131.464844 286.667969 134.191406 283.089844 133.714844 278.695312 C 133.535156 277.035156 132.59375 276.316406 131.113281 276.308594 C 123.792969 276.265625 116.46875 276.269531 109.148438 276.296875 C 107.46875 276.304688 106.582031 277.109375 106.59375 278.949219 C 106.640625 287.691406 106.632812 296.4375 106.597656 305.179688 C 106.59375 306.824219 107.175781 307.589844 108.902344 307.585938 C 117.648438 307.546875 126.394531 307.558594 135.140625 307.574219 C 137.320312 307.578125 137.933594 306.402344 137.789062 304.425781 C 137.429688 299.535156 134.90625 297.039062 129.972656 296.96875 C 125.089844 296.898438 120.207031 296.949219 114.726562 296.945312 Z M 114.726562 296.945312 " fill-opacity="1" fill-rule="nonzero"/><path fill="#000000" d="M 176.710938 172.195312 C 183.722656 176.738281 190.789062 177.0625 198 173.382812 C 202.355469 171.15625 205.191406 167.511719 207.019531 163.03125 C 208.855469 158.53125 208.519531 153.957031 207.398438 149.175781 C 214.851562 152.082031 221.292969 155.914062 223.4375 164.085938 C 225.324219 171.28125 222.558594 177.109375 216.9375 181.558594 C 207.410156 189.105469 196.253906 191.105469 184.464844 190.398438 C 178.558594 190.042969 172.785156 188.851562 167.371094 186.300781 C 164.320312 184.863281 161.449219 183.144531 158.925781 180.886719 C 151.09375 173.894531 150.59375 163.589844 157.796875 156.070312 C 160.925781 152.800781 164.746094 150.546875 169.832031 148.660156 C 166.972656 158.265625 168.917969 166.089844 176.710938 172.195312 Z M 176.710938 172.195312 " fill-opacity="1" fill-rule="nonzero"/><path fill="#000000" d="M 223.21875 317.027344 C 214.332031 313.726562 209.792969 307.289062 209.089844 298.296875 C 208.695312 293.253906 208.609375 288.148438 209.417969 283.078125 C 210.96875 273.375 219.300781 266.109375 229.164062 266.027344 C 233.238281 265.996094 237.308594 266.019531 241.382812 266.023438 C 254.683594 266.03125 262.273438 272.550781 263.875 285.792969 C 264.511719 291.03125 264.519531 296.382812 263.464844 301.601562 C 262.109375 308.285156 258.3125 313.21875 251.839844 316.285156 C 254.289062 319.640625 258.3125 321.144531 261.339844 325.109375 C 254.792969 324.421875 248.546875 327.144531 243.609375 321.675781 C 240.957031 318.734375 237.625 317.808594 233.71875 318.160156 C 230.261719 318.472656 226.808594 318.089844 223.21875 317.027344 M 223.816406 277.542969 C 220.695312 279.453125 219.152344 282.351562 219.027344 285.894531 C 218.882812 290.054688 218.875 294.226562 219.035156 298.382812 C 219.238281 303.652344 223.578125 307.984375 228.882812 308.15625 C 233.851562 308.320312 238.839844 308.332031 243.8125 308.167969 C 249.609375 307.976562 253.886719 303.554688 254.058594 297.761719 C 254.160156 294.3125 254.113281 290.859375 254.085938 287.40625 C 254.027344 280.269531 249.695312 275.832031 242.511719 275.632812 C 238.855469 275.53125 235.195312 275.644531 231.539062 275.59375 C 228.941406 275.5625 226.503906 276.089844 223.816406 277.542969 Z M 223.816406 277.542969 " fill-opacity="1" fill-rule="nonzero"/><path fill="#000000" d="M 152.882812 279.929688 C 154.621094 271 159.816406 266.671875 168.628906 266.648438 C 177.582031 266.621094 186.535156 266.742188 195.484375 266.578125 C 198.4375 266.523438 199.542969 267.460938 199.246094 270.40625 C 198.5625 277.125 199.894531 276.375 193.113281 276.433594 C 185.078125 276.5 177.054688 275.949219 169.023438 276.238281 C 165.421875 276.367188 163.265625 277.828125 162.835938 280.472656 C 162.160156 284.613281 164.007812 286.90625 168.285156 286.957031 C 174.691406 287.03125 181.105469 286.839844 187.507812 287.003906 C 199.078125 287.300781 205.785156 295.789062 203.121094 306.558594 C 201.539062 312.953125 196.304688 317.210938 188.632812 317.410156 C 177.757812 317.695312 166.867188 317.464844 155.984375 317.488281 C 154.09375 317.492188 153.234375 316.773438 153.257812 314.773438 C 153.347656 306.269531 152.492188 307.652344 160.011719 307.589844 C 169.269531 307.515625 178.527344 307.589844 187.78125 307.566406 C 191.886719 307.554688 193.714844 305.902344 193.714844 302.328125 C 193.71875 298.820312 191.765625 296.992188 187.804688 296.964844 C 181.5 296.917969 175.191406 296.964844 168.886719 296.941406 C 158.488281 296.902344 152.441406 290.574219 152.882812 279.929688 Z M 152.882812 279.929688 " fill-opacity="1" fill-rule="nonzero"/><path fill="#000000" d="M 196.164062 98.6875 C 192.847656 103.109375 188.398438 104.21875 184.046875 101.878906 C 180.304688 99.867188 178.648438 95.324219 180.132812 91.144531 C 181.742188 86.601562 186.554688 84.242188 191.175781 85.722656 C 195.882812 87.234375 198.355469 91.765625 197.027344 96.496094 C 196.835938 97.175781 196.527344 97.820312 196.164062 98.6875 Z M 196.164062 98.6875 " fill-opacity="1" fill-rule="nonzero"/><path fill="#000000" d="M 183.421875 74.277344 C 182.269531 71.519531 182.707031 69.222656 184.804688 67.480469 C 186.765625 65.855469 189.078125 65.632812 191.332031 66.914062 C 193.515625 68.15625 194.210938 70.234375 193.953125 72.625 C 193.699219 75.007812 192.257812 76.503906 190.019531 77.125 C 187.238281 77.890625 185.066406 76.914062 183.421875 74.277344 Z M 183.421875 74.277344 " fill-opacity="1" fill-rule="nonzero"/><path fill="#000000" d="M 276.847656 270.503906 C 278.566406 270.691406 278.238281 269.230469 278.667969 268.386719 C 279.097656 267.539062 279.5 266.726562 280.636719 266.828125 C 281.921875 266.941406 281.984375 267.945312 281.925781 268.847656 C 281.789062 270.972656 282.519531 273.21875 281.292969 275.238281 C 279.375 274.878906 280.226562 273.210938 279.59375 272.277344 C 278.566406 273.101562 278.980469 274.964844 277.304688 275.316406 C 275.511719 274.84375 275.867188 272.851562 274.863281 271.714844 C 274.148438 272.828125 275.378906 274.667969 273.097656 275.410156 C 271.933594 272.824219 272.171875 270.128906 272.820312 267.613281 C 273.167969 266.28125 274.65625 266.523438 275.449219 267.632812 C 276.023438 268.445312 276.320312 269.449219 276.847656 270.503906 Z M 276.847656 270.503906 " fill-opacity="1" fill-rule="nonzero"/><path fill="#000000" d="M 185.285156 54.066406 C 186.292969 52.253906 187.605469 51.46875 189.433594 51.992188 C 190.835938 52.394531 191.632812 53.472656 191.84375 54.863281 C 192.0625 56.300781 191.375 57.414062 190.179688 58.195312 C 189.054688 58.933594 187.878906 58.902344 186.730469 58.230469 C 185.195312 57.332031 184.863281 55.941406 185.285156 54.066406 Z M 185.285156 54.066406 " fill-opacity="1" fill-rule="nonzero"/><path fill="#000000" d="M 266.917969 270.292969 C 266.855469 268.726562 264.96875 268.90625 264.875 267.285156 C 266.996094 266.328125 269.101562 266.378906 272.234375 267.613281 C 267.496094 268.992188 270.179688 272.960938 268.378906 275.476562 C 266.117188 274.15625 267.351562 272.109375 266.917969 270.292969 Z M 266.917969 270.292969 " fill-opacity="1" fill-rule="nonzero"/></svg>